# xmcd
#
# Track frame offsets:
#	150
#	9958
#	18863
#	30382
#	40543
#	51070
#	62586
#	71511
#	83884
#	94429
#	105981
#	114524
#	121981
#	133774
#	144318
#	151638
#	163762
#	173575
#
# Disc length: 2461 seconds
#
# Revision: 0
# Processed by: cddbd v1.5.2PL0 Copyright (c) Steve Scherf et al.
# Submitted via: EZCDAudioConverter 2.2.2.1
#
DISCID=d2099b12
DTITLE=Eddie Noack - The Singles Collection 1949-1962
DYEAR=1900
DGENRE=Country
TTITLE0=Shake Hands With The Blues
TTITLE1=Sunflower Song
TTITLE2=Firewater Luke
TTITLE3=Too Weak To Go
TTITLE4=It's Hard To Tell An Old Love Goodbye
TTITLE5=Love's Other Face
TTITLE6=I Slipped Out Of Heaven
TTITLE7=Firewater Luke
TTITLE8=Shotgun House
TTITLE9=Where Do You Go (When You Say Goodnight)
TTITLE10=Mama Stays Home (Papa He Goes)
TTITLE11=Through These Doors
TTITLE12=The Countdown
TTITLE13=Honeymoon With The Blues
TTITLE14=Too Hot To Handle
TTITLE15=Tell Her
TTITLE16=We Are The Lonely Ones
TTITLE17=Chaperoned By A Memory
EXTD=
EXTT0=
EXTT1=
EXTT2=
EXTT3=
EXTT4=
EXTT5=
EXTT6=
EXTT7=
EXTT8=
EXTT9=
EXTT10=
EXTT11=
EXTT12=
EXTT13=
EXTT14=
EXTT15=
EXTT16=
EXTT17=
PLAYORDER=
